<?xml version="1.0" encoding="UTF-8" standalone="no"?>
<!DOCTYPE svg PUBLIC "-//W3C//DTD SVG 1.1//EN" "http://www.w3.org/Graphics/SVG/1.1/DTD/svg11.dtd">
<svg width="100%" height="100%" viewBox="0 0 394 189" version="1.1" xmlns="http://www.w3.org/2000/svg" xmlns:xlink="http://www.w3.org/1999/xlink" xml:space="preserve" xmlns:serif="http://www.serif.com/" style="fill-rule:evenodd;clip-rule:evenodd;stroke-linejoin:round;stroke-miterlimit:2;">
    <g transform="matrix(1,0,0,1,-52.6224,-165.385)">
        <g transform="matrix(0.578785,0,0,0.921502,23.582,20.0709)">
            <path d="M729.196,208.916C729.196,180.645 692.652,157.692 647.641,157.692L131.73,157.692C86.718,157.692 50.175,180.645 50.175,208.916L50.175,311.364C50.175,339.635 86.718,362.587 131.73,362.587L647.641,362.587C692.652,362.587 729.196,339.635 729.196,311.364L729.196,208.916Z" style="fill:rgb(255,0,0);"/>
        </g>
        <g transform="matrix(1,0,0,1,86.0229,303.113)">
            <g transform="matrix(130,0,0,130,0,0)">
                <path d="M0.307,-0.667L0.307,-0L0.077,-0C0.065,-0 0.056,-0.002 0.05,-0.007C0.043,-0.011 0.04,-0.017 0.04,-0.025C0.04,-0.039 0.047,-0.048 0.06,-0.052C0.07,-0.055 0.077,-0.058 0.078,-0.058C0.08,-0.059 0.082,-0.061 0.084,-0.064C0.088,-0.069 0.09,-0.077 0.09,-0.089L0.09,-0.578C0.09,-0.589 0.088,-0.597 0.084,-0.603C0.082,-0.605 0.08,-0.607 0.078,-0.608C0.077,-0.609 0.07,-0.611 0.06,-0.615C0.047,-0.619 0.04,-0.628 0.04,-0.641C0.04,-0.649 0.043,-0.656 0.05,-0.66C0.056,-0.664 0.065,-0.667 0.077,-0.667L0.307,-0.667ZM0.458,-0.345C0.488,-0.339 0.51,-0.334 0.526,-0.328C0.542,-0.323 0.556,-0.316 0.569,-0.307C0.591,-0.293 0.607,-0.275 0.619,-0.252C0.63,-0.229 0.636,-0.203 0.636,-0.175C0.636,-0.119 0.616,-0.076 0.575,-0.044C0.554,-0.028 0.53,-0.017 0.505,-0.01C0.479,-0.003 0.446,-0 0.404,-0L0.346,-0L0.346,-0.051C0.359,-0.052 0.369,-0.054 0.377,-0.057C0.384,-0.06 0.391,-0.064 0.397,-0.071C0.408,-0.083 0.413,-0.102 0.413,-0.127L0.413,-0.238C0.413,-0.254 0.412,-0.267 0.409,-0.276C0.406,-0.285 0.401,-0.293 0.394,-0.301C0.388,-0.307 0.382,-0.311 0.375,-0.313C0.369,-0.316 0.36,-0.318 0.348,-0.32L0.348,-0.371C0.36,-0.372 0.369,-0.373 0.376,-0.375C0.382,-0.378 0.389,-0.382 0.394,-0.387C0.399,-0.392 0.404,-0.398 0.407,-0.406C0.411,-0.414 0.413,-0.421 0.413,-0.427L0.413,-0.539C0.413,-0.547 0.412,-0.557 0.409,-0.566C0.406,-0.576 0.402,-0.583 0.398,-0.589C0.392,-0.596 0.385,-0.602 0.377,-0.605C0.37,-0.609 0.359,-0.611 0.346,-0.613L0.346,-0.667L0.402,-0.667C0.477,-0.667 0.533,-0.651 0.572,-0.621C0.59,-0.607 0.604,-0.59 0.613,-0.57C0.623,-0.55 0.627,-0.528 0.627,-0.505C0.627,-0.483 0.623,-0.461 0.613,-0.441C0.603,-0.421 0.59,-0.404 0.573,-0.391C0.56,-0.38 0.545,-0.372 0.529,-0.365C0.512,-0.359 0.489,-0.352 0.458,-0.345Z" style="fill:white;fill-rule:nonzero;"/>
            </g>
            <g transform="matrix(130,0,0,130,87.0264,0)">
                <path d="M0.307,-0.667L0.307,-0L0.077,-0C0.065,-0 0.056,-0.002 0.05,-0.007C0.043,-0.011 0.04,-0.017 0.04,-0.025C0.04,-0.039 0.047,-0.048 0.06,-0.052C0.07,-0.055 0.077,-0.058 0.078,-0.058C0.08,-0.059 0.082,-0.061 0.084,-0.064C0.088,-0.069 0.09,-0.077 0.09,-0.089L0.09,-0.578C0.09,-0.589 0.088,-0.597 0.084,-0.603C0.082,-0.605 0.08,-0.607 0.078,-0.608C0.077,-0.609 0.07,-0.611 0.06,-0.615C0.047,-0.619 0.04,-0.628 0.04,-0.641C0.04,-0.649 0.043,-0.656 0.05,-0.66C0.056,-0.664 0.065,-0.667 0.077,-0.667L0.307,-0.667ZM0.35,-0.667L0.547,-0.667L0.547,-0.494C0.547,-0.484 0.545,-0.476 0.541,-0.472C0.537,-0.467 0.531,-0.465 0.522,-0.465C0.515,-0.465 0.51,-0.466 0.507,-0.469C0.504,-0.472 0.5,-0.478 0.498,-0.487C0.485,-0.525 0.467,-0.554 0.443,-0.574C0.419,-0.594 0.388,-0.605 0.35,-0.609L0.35,-0.667ZM0.348,-0.311L0.348,-0.368C0.367,-0.377 0.381,-0.387 0.39,-0.397C0.399,-0.408 0.405,-0.423 0.41,-0.44C0.412,-0.453 0.416,-0.461 0.42,-0.466C0.424,-0.471 0.43,-0.473 0.438,-0.473C0.448,-0.473 0.456,-0.469 0.459,-0.461C0.462,-0.457 0.463,-0.447 0.463,-0.432L0.463,-0.246C0.463,-0.231 0.461,-0.22 0.458,-0.214C0.454,-0.208 0.448,-0.206 0.439,-0.206C0.431,-0.206 0.426,-0.208 0.421,-0.212C0.417,-0.217 0.414,-0.225 0.411,-0.235C0.406,-0.258 0.398,-0.275 0.387,-0.287C0.377,-0.299 0.364,-0.307 0.348,-0.311ZM0.351,-0L0.351,-0.053C0.372,-0.056 0.389,-0.061 0.403,-0.066C0.417,-0.072 0.431,-0.081 0.445,-0.093C0.459,-0.105 0.47,-0.118 0.478,-0.131C0.487,-0.143 0.494,-0.16 0.502,-0.182C0.506,-0.192 0.509,-0.199 0.513,-0.203C0.517,-0.207 0.522,-0.208 0.529,-0.208C0.538,-0.208 0.545,-0.206 0.548,-0.2C0.552,-0.195 0.554,-0.186 0.554,-0.172L0.554,-0L0.351,-0Z" style="fill:white;fill-rule:nonzero;"/>
            </g>
            <g transform="matrix(130,0,0,130,163.325,0)">
                <path d="M0.405,-0.667L0.405,-0.093C0.405,-0.08 0.407,-0.071 0.412,-0.065C0.415,-0.062 0.417,-0.06 0.419,-0.059C0.422,-0.059 0.429,-0.056 0.442,-0.053C0.458,-0.05 0.465,-0.041 0.465,-0.026C0.465,-0.018 0.461,-0.011 0.453,-0.006C0.446,-0.002 0.436,-0 0.421,-0L0.171,-0C0.157,-0 0.146,-0.002 0.139,-0.007C0.132,-0.011 0.128,-0.018 0.128,-0.026C0.128,-0.041 0.136,-0.05 0.151,-0.053C0.164,-0.056 0.172,-0.059 0.174,-0.059C0.176,-0.06 0.178,-0.062 0.181,-0.065C0.186,-0.071 0.188,-0.08 0.188,-0.093L0.188,-0.667L0.405,-0.667ZM0.574,-0.667L0.574,-0.467C0.574,-0.457 0.571,-0.45 0.566,-0.444C0.56,-0.438 0.553,-0.435 0.545,-0.435C0.537,-0.435 0.53,-0.438 0.525,-0.443C0.519,-0.448 0.516,-0.456 0.514,-0.465L0.509,-0.495C0.504,-0.525 0.495,-0.552 0.481,-0.574C0.472,-0.587 0.46,-0.599 0.445,-0.607L0.445,-0.667L0.574,-0.667ZM0.02,-0.667L0.148,-0.667L0.148,-0.607C0.133,-0.599 0.121,-0.587 0.113,-0.574C0.099,-0.552 0.089,-0.525 0.084,-0.495L0.08,-0.465C0.078,-0.456 0.074,-0.448 0.069,-0.443C0.064,-0.438 0.057,-0.435 0.049,-0.435C0.04,-0.435 0.033,-0.438 0.028,-0.444C0.023,-0.45 0.02,-0.457 0.02,-0.467L0.02,-0.667Z" style="fill:white;fill-rule:nonzero;"/>
            </g>
            <g transform="matrix(130,0,0,130,240.513,0)">
                <path d="M0.236,-0.667L0.433,-0.667L0.568,-0.093C0.571,-0.083 0.574,-0.074 0.577,-0.066C0.58,-0.06 0.587,-0.055 0.597,-0.051C0.605,-0.047 0.611,-0.044 0.614,-0.04C0.618,-0.036 0.619,-0.032 0.619,-0.025C0.619,-0.008 0.606,-0 0.581,-0L0.337,-0C0.328,-0 0.32,-0.002 0.314,-0.007C0.308,-0.012 0.305,-0.018 0.305,-0.026C0.305,-0.032 0.306,-0.037 0.309,-0.041C0.312,-0.044 0.318,-0.048 0.327,-0.053C0.333,-0.056 0.338,-0.06 0.34,-0.063C0.343,-0.067 0.344,-0.072 0.344,-0.078C0.344,-0.084 0.344,-0.089 0.343,-0.093L0.327,-0.164L0.191,-0.164L0.204,-0.222L0.313,-0.222L0.224,-0.619L0.236,-0.667ZM0.202,-0.542L0.227,-0.441L0.141,-0.126C0.138,-0.117 0.137,-0.108 0.137,-0.101C0.137,-0.08 0.146,-0.065 0.166,-0.057L0.183,-0.049C0.193,-0.044 0.199,-0.036 0.199,-0.024C0.199,-0.008 0.187,-0 0.163,-0L0.039,-0C0.027,-0 0.017,-0.003 0.01,-0.008C0.003,-0.013 0,-0.02 0,-0.028C0,-0.038 0.007,-0.046 0.021,-0.052C0.035,-0.058 0.045,-0.063 0.051,-0.068C0.057,-0.072 0.063,-0.079 0.069,-0.087C0.078,-0.1 0.086,-0.118 0.092,-0.14L0.202,-0.542Z" style="fill:white;fill-rule:nonzero;"/>
            </g>
        </g>
    </g>
</svg>
