<svg width="22pt" height="30pt" viewBox="0 0 22 30" xmlns="http://www.w3.org/2000/svg"><g id="fontsvg1634956945896" stroke-linecap="round" fill-rule="evenodd" fill="#000000"><path d="M 13.906 20.137 L 6.484 20.137 L 6.484 19.395 Q 6.484 18.064 6.697 17.084 A 5.894 5.894 0 0 1 6.914 16.319 A 6.814 6.814 0 0 1 8.193 14.16 A 9.513 9.513 0 0 1 8.666 13.662 Q 9.692 12.645 12.012 10.723 A 7.793 7.793 0 0 0 12.685 10.111 Q 13.35 9.425 13.528 8.805 A 1.607 1.607 0 0 0 13.594 8.36 A 2.922 2.922 0 0 0 13.519 7.678 A 1.941 1.941 0 0 0 12.959 6.69 Q 12.465 6.226 11.576 6.123 A 4.708 4.708 0 0 0 11.035 6.094 A 3.436 3.436 0 0 0 9.877 6.282 A 2.995 2.995 0 0 0 8.74 7.012 Q 7.916 7.845 7.631 9.804 A 12.201 12.201 0 0 0 7.578 10.215 L 0 9.278 A 12.091 12.091 0 0 1 0.752 5.987 A 9.53 9.53 0 0 1 3.037 2.549 Q 5.684 0 11.152 0 A 16.767 16.767 0 0 1 13.886 0.21 Q 15.439 0.467 16.702 1.038 A 8.825 8.825 0 0 1 18.027 1.778 A 8.785 8.785 0 0 1 20.159 3.758 A 7.158 7.158 0 0 1 21.582 8.184 Q 21.582 9.844 20.664 11.387 A 7.116 7.116 0 0 1 19.996 12.309 Q 18.95 13.556 16.914 15.156 A 23.734 23.734 0 0 0 16.019 15.899 Q 14.812 16.956 14.424 17.666 A 3.837 3.837 0 0 0 14.071 18.603 Q 13.906 19.279 13.906 20.137 Z M 6.23 29.121 L 6.23 22.11 L 14.18 22.11 L 14.18 29.121 L 6.23 29.121 Z" vector-effect="non-scaling-stroke"/></g></svg>
