<svg width="65" height="22" viewBox="0 0 65 22" fill="none" xmlns="http://www.w3.org/2000/svg">
<path d="M5.376 10.24C5.376 11.456 5.576 12.392 5.976 13.048C6.376 13.688 6.896 14.008 7.536 14.008C7.888 14.008 8.216 13.92 8.52 13.744V6.4C8.248 6.288 7.968 6.232 7.68 6.232C6.976 6.232 6.416 6.568 6 7.24C5.584 7.912 5.376 8.912 5.376 10.24ZM5.28 16.384C4.4 16.384 3.6 16.16 2.88 15.712C2.16 15.264 1.584 14.592 1.152 13.696C0.736 12.784 0.528 11.648 0.528 10.288C0.528 8.928 0.792 7.776 1.32 6.832C1.848 5.888 2.536 5.168 3.384 4.672C4.232 4.176 5.144 3.928 6.12 3.928C7.256 3.928 8.24 4.376 9.072 5.272L12.312 3.928L13.152 4.168L13.08 7.408V16.288C13.08 16.88 13.08 17.472 13.08 18.064C13.096 18.656 13.112 19.256 13.128 19.864L14.016 20.08V21.328H7.272V20.08L8.568 19.72C8.584 19.16 8.592 18.592 8.592 18.016C8.592 17.44 8.592 16.864 8.592 16.288V15.04C8.128 15.504 7.624 15.84 7.08 16.048C6.536 16.272 5.936 16.384 5.28 16.384ZM23.0368 16.288L22.9408 14.392C22.4608 15.016 21.9088 15.504 21.2848 15.856C20.6608 16.208 19.9648 16.384 19.1968 16.384C18.1408 16.384 17.2848 16.064 16.6288 15.424C15.9888 14.768 15.6768 13.648 15.6928 12.064L15.7888 6.256L14.5408 5.968V4.888L19.9888 4.048L20.4208 4.312L20.3008 7.72V12.184C20.3008 12.808 20.3968 13.24 20.5888 13.48C20.7968 13.704 21.0528 13.816 21.3568 13.816C21.5968 13.816 21.8448 13.736 22.1008 13.576C22.3728 13.416 22.6368 13.216 22.8928 12.976L22.9888 6.232L21.8368 5.968V5.008L27.1408 4.048L27.5728 4.312L27.5008 7.72V14.56L28.6048 14.8V16.024L23.0368 16.288ZM35.8093 16.384C34.4333 16.384 33.2733 16.112 32.3293 15.568C31.3853 15.008 30.6733 14.248 30.1933 13.288C29.7133 12.328 29.4733 11.256 29.4733 10.072C29.4733 8.872 29.7453 7.816 30.2893 6.904C30.8333 5.976 31.5773 5.248 32.5213 4.72C33.4813 4.192 34.5773 3.928 35.8093 3.928C37.0413 3.928 38.1293 4.192 39.0733 4.72C40.0333 5.232 40.7853 5.952 41.3293 6.88C41.8733 7.792 42.1453 8.856 42.1453 10.072C42.1453 11.288 41.8973 12.376 41.4013 13.336C40.9213 14.28 40.2093 15.024 39.2653 15.568C38.3373 16.112 37.1853 16.384 35.8093 16.384ZM35.8093 15.064C36.3373 15.064 36.7213 14.68 36.9613 13.912C37.2173 13.144 37.3453 11.888 37.3453 10.144C37.3453 8.4 37.2173 7.152 36.9613 6.4C36.7213 5.632 36.3373 5.248 35.8093 5.248C35.2813 5.248 34.8893 5.632 34.6333 6.4C34.3933 7.152 34.2733 8.4 34.2733 10.144C34.2733 11.888 34.3933 13.144 34.6333 13.912C34.8893 14.68 35.2813 15.064 35.8093 15.064ZM48.0557 16.384C46.8717 16.384 45.9517 16.112 45.2957 15.568C44.6397 15.008 44.3117 14.088 44.3117 12.808C44.3117 12.344 44.3117 11.92 44.3117 11.536C44.3277 11.136 44.3357 10.704 44.3357 10.24V6.112H42.9677V4.528L44.5997 4.312L46.0397 0.904H48.8957V4.312H51.1037V6.112H48.8957V12.544C48.8957 13.088 49.0077 13.488 49.2317 13.744C49.4557 14 49.7357 14.128 50.0717 14.128C50.4397 14.128 50.8317 13.968 51.2477 13.648L51.8477 14.2C51.5277 14.888 51.0637 15.424 50.4557 15.808C49.8477 16.192 49.0477 16.384 48.0557 16.384ZM61.5454 16.384C60.7934 16.384 60.1854 16.24 59.7214 15.952C59.2734 15.648 58.9454 15.224 58.7374 14.68C58.2734 15.192 57.8014 15.608 57.3214 15.928C56.8574 16.232 56.1934 16.384 55.3294 16.384C54.3854 16.384 53.6254 16.112 53.0494 15.568C52.4894 15.024 52.2094 14.264 52.2094 13.288C52.2094 12.664 52.3454 12.112 52.6174 11.632C52.9054 11.136 53.4014 10.688 54.1054 10.288C54.8254 9.872 55.8334 9.496 57.1294 9.16C57.3214 9.112 57.5454 9.056 57.8014 8.992C58.0574 8.912 58.3214 8.84 58.5934 8.776V7.912C58.5934 6.888 58.4734 6.184 58.2334 5.8C58.0094 5.416 57.5214 5.224 56.7694 5.224C56.7054 5.224 56.6414 5.224 56.5774 5.224C56.5294 5.224 56.4734 5.224 56.4094 5.224V6.04C56.4094 7.016 56.2094 7.712 55.8094 8.128C55.4094 8.528 54.9534 8.728 54.4414 8.728C53.4654 8.728 52.8574 8.296 52.6174 7.432C52.6174 6.392 53.1054 5.552 54.0814 4.912C55.0734 4.256 56.5374 3.928 58.4734 3.928C60.1374 3.928 61.3054 4.296 61.9774 5.032C62.6654 5.752 63.0094 6.936 63.0094 8.584V14.08C63.0094 14.352 63.1454 14.488 63.4174 14.488C63.5134 14.488 63.6094 14.456 63.7054 14.392C63.8014 14.312 63.9214 14.168 64.0654 13.96L64.7614 14.344C64.4734 15.08 64.0734 15.608 63.5614 15.928C63.0654 16.232 62.3934 16.384 61.5454 16.384ZM56.3374 12.544C56.3374 13.136 56.4574 13.576 56.6974 13.864C56.9374 14.152 57.2334 14.296 57.5854 14.296C57.6974 14.296 57.8174 14.272 57.9454 14.224C58.0894 14.16 58.3054 14.032 58.5934 13.84V9.904C58.3534 9.968 58.1214 10.056 57.8974 10.168C57.5614 10.328 57.2174 10.6 56.8654 10.984C56.5134 11.368 56.3374 11.888 56.3374 12.544Z" fill="#3B4662"/>
</svg>
