<?xml version="1.0" encoding="UTF-8" standalone="no"?>
<!DOCTYPE svg PUBLIC "-//W3C//DTD SVG 1.1//EN" "http://www.w3.org/Graphics/SVG/1.1/DTD/svg11.dtd">
<svg width="100%" height="100%" viewBox="0 0 356 140" version="1.1" xmlns="http://www.w3.org/2000/svg" xmlns:xlink="http://www.w3.org/1999/xlink" xml:space="preserve" xmlns:serif="http://www.serif.com/" style="fill-rule:evenodd;clip-rule:evenodd;stroke-linejoin:round;stroke-miterlimit:2;">
    <g transform="matrix(1,0,0,1,0.0117647,1.17647)">
        <g>
            <g>
                <g transform="matrix(1,0,0,1,-7.11765,90.5882)">
                    <g>
                        <g>
                            <path d="M8.424,5.882L13.2,5.882C13.976,5.882 14.494,5.365 14.494,4.588L14.494,-39.294C14.494,-47.318 19.812,-52.094 27.435,-52.094L33.129,-52.094C33.906,-52.094 34.424,-52.612 34.424,-53.388L34.424,-57.906C34.424,-58.706 33.906,-59.2 33.129,-59.2L27.435,-59.2C15.788,-59.2 7.106,-51.176 7.106,-39.294L7.106,4.588C7.106,5.365 7.647,5.882 8.424,5.882Z" style="fill:rgb(10,6,25);fill-rule:nonzero;"/>
                        </g>
                    </g>
                </g>
                <g transform="matrix(1,0,0,1,31.8,90.5882)">
                    <g>
                        <g>
                            <path d="M24.847,7.035C36.753,7.035 44.518,-1.506 44.518,-13.012L44.518,-40.047C44.518,-51.435 36.894,-60.118 24.988,-60.118C13.835,-60.118 6.612,-52.094 5.953,-41.082C5.953,-40.329 6.471,-39.788 7.247,-39.788L12.047,-39.788C12.824,-39.788 13.2,-40.188 13.341,-41.082C13.835,-48.212 18.118,-52.988 24.988,-52.988C32.612,-52.988 37.153,-47.553 37.153,-40.047L37.153,-31.647L24.588,-31.647C12.824,-31.647 4.918,-23.247 4.918,-13.012C4.918,-1.506 12.824,7.035 24.847,7.035ZM24.847,-0.071C16.965,-0.071 12.282,-5.388 12.282,-13.012C12.282,-19.341 16.965,-24.541 24.588,-24.541L37.153,-24.541L37.153,-13.012C37.153,-5.388 32.612,-0.071 24.847,-0.071Z" style="fill:rgb(10,6,25);fill-rule:nonzero;"/>
                        </g>
                    </g>
                </g>
                <g transform="matrix(1,0,0,1,78.7412,90.5882)">
                    <g>
                        <g>
                            <path d="M12.047,-67.224C14.894,-67.224 17.082,-69.553 17.082,-72.282C17.082,-75.247 14.894,-77.341 12.047,-77.341C9.059,-77.341 6.988,-75.247 6.988,-72.282C6.988,-69.435 9.059,-67.224 12.047,-67.224ZM9.718,5.882L14.494,5.882C15.271,5.882 15.788,5.365 15.788,4.588L15.788,-57.529C15.788,-58.306 15.271,-58.824 14.494,-58.824L9.718,-58.824C8.918,-58.824 8.424,-58.306 8.424,-57.529L8.424,4.588C8.424,5.365 8.918,5.882 9.718,5.882Z" style="fill:rgb(10,6,25);fill-rule:nonzero;"/>
                        </g>
                    </g>
                </g>
                <g transform="matrix(1,0,0,1,99.4118,90.5882)">
                    <g>
                        <g>
                            <path d="M44.118,-84.706L39.341,-84.706C38.565,-84.706 38.047,-84.188 38.047,-83.412L38.047,-53.647C34.941,-57.529 30.682,-60.118 25.624,-60.118C13.718,-60.118 5.835,-51.435 5.835,-39.788L5.835,-13.153C5.835,-1.506 13.718,7.176 25.624,7.176C37.529,7.176 45.412,-1.506 45.412,-13.153L45.412,-83.412C45.412,-84.188 44.918,-84.706 44.118,-84.706ZM38.047,-13.153C38.047,-5.388 33.388,0.047 25.624,0.047C17.859,0.047 13.2,-5.388 13.2,-13.153L13.2,-39.788C13.2,-47.553 17.859,-52.988 25.624,-52.988C33.388,-52.988 38.047,-47.553 38.047,-39.788L38.047,-13.153Z" style="fill:rgb(10,6,25);fill-rule:nonzero;"/>
                        </g>
                    </g>
                </g>
                <g transform="matrix(1,0,0,1,154.247,0)">
                    <rect x="0" y="-1.176" width="53.718" height="106" style="fill:rgb(123,134,239);"/>
                    <g transform="matrix(1,0,0,1,-0.0588235,90.5882)">
                        <g>
                            <path d="M26.918,-60.118C21.859,-60.118 17.6,-57.529 14.494,-53.647L14.494,-83.412C14.494,-84.188 13.976,-84.706 13.2,-84.706L8.424,-84.706C7.647,-84.706 7.106,-84.188 7.106,-83.412L7.106,-13.153C7.106,-1.506 15.012,7.176 26.918,7.176C38.824,7.176 46.729,-1.506 46.729,-13.153L46.729,-39.788C46.729,-51.435 38.824,-60.118 26.918,-60.118ZM39.341,-13.153C39.341,-5.388 34.682,0.047 26.918,0.047C19.153,0.047 14.494,-5.388 14.494,-13.153L14.494,-39.788C14.494,-47.553 19.153,-52.988 26.918,-52.988C34.682,-52.988 39.341,-47.553 39.341,-39.788L39.341,-13.153Z" style="fill:rgb(10,6,25);fill-rule:nonzero;"/>
                        </g>
                    </g>
                </g>
                <g transform="matrix(1,0,0,1,211.553,90.5882)">
                    <g>
                        <g>
                            <path d="M25.765,7.176C37.788,7.176 45.671,-1.506 45.671,-13.153L45.671,-39.788C45.671,-51.435 37.788,-60.118 25.765,-60.118C13.718,-60.118 5.835,-51.435 5.835,-39.788L5.835,-13.153C5.835,-1.506 13.718,7.176 25.765,7.176ZM25.765,0.188C18,0.188 13.341,-5.247 13.341,-13.153L13.341,-39.788C13.341,-47.694 18,-53.129 25.765,-53.129C33.506,-53.129 38.188,-47.694 38.188,-39.788L38.188,-13.153C38.188,-5.247 33.506,0.188 25.765,0.188Z" style="fill:rgb(10,6,25);fill-rule:nonzero;"/>
                        </g>
                    </g>
                </g>
                <g transform="matrix(1,0,0,1,261.729,90.5882)">
                    <g>
                        <g>
                            <path d="M25.624,7.176C37.153,7.176 44.659,-0.847 44.659,-10.306C44.659,-32.565 12.941,-27.624 12.941,-42.659C12.941,-48.729 17.6,-52.988 24.588,-52.988C32.094,-52.988 35.976,-47.953 36.376,-41.082C36.376,-40.188 36.894,-39.788 37.647,-39.788L42.447,-39.788C43.224,-39.788 43.741,-40.329 43.741,-41.082C43.224,-52.612 36.894,-60.118 24.212,-60.118C12.941,-60.118 5.576,-52.094 5.576,-42.659C5.576,-21.035 37.271,-25.953 37.271,-10.306C37.271,-4.212 33.388,0.047 25.624,0.047C17.082,0.047 12.682,-4.329 12.282,-13.153C12.282,-14.047 11.765,-14.424 10.988,-14.424L6.212,-14.424C5.435,-14.424 4.918,-13.929 4.918,-13.153C5.435,-0.847 13.2,7.176 25.624,7.176Z" style="fill:rgb(10,6,25);fill-rule:nonzero;"/>
                        </g>
                    </g>
                </g>
                <g transform="matrix(1,0,0,1,310.871,90.5882)">
                    <g>
                        <g>
                            <path d="M25.624,7.176C37.153,7.176 44.659,-0.847 44.659,-10.306C44.659,-32.565 12.941,-27.624 12.941,-42.659C12.941,-48.729 17.6,-52.988 24.588,-52.988C32.094,-52.988 35.976,-47.953 36.376,-41.082C36.376,-40.188 36.894,-39.788 37.647,-39.788L42.447,-39.788C43.224,-39.788 43.741,-40.329 43.741,-41.082C43.224,-52.612 36.894,-60.118 24.212,-60.118C12.941,-60.118 5.576,-52.094 5.576,-42.659C5.576,-21.035 37.271,-25.953 37.271,-10.306C37.271,-4.212 33.388,0.047 25.624,0.047C17.082,0.047 12.682,-4.329 12.282,-13.153C12.282,-14.047 11.765,-14.424 10.988,-14.424L6.212,-14.424C5.435,-14.424 4.918,-13.929 4.918,-13.153C5.435,-0.847 13.2,7.176 25.624,7.176Z" style="fill:rgb(10,6,25);fill-rule:nonzero;"/>
                        </g>
                    </g>
                </g>
            </g>
            <g transform="matrix(1,0,0,1,11.7647,113.059)">
                <rect x="0" y="14.306" width="94.359" height="2.353" style="fill:rgb(10,6,25);"/>
                <rect x="237.653" y="14.306" width="94.359" height="2.353" style="fill:rgb(10,6,25);"/>
                <g transform="matrix(1,0,0,1,100.232,18.8612)">
                    <g>
                        <path d="M2.588,1.835L1.176,3.482C2,4.329 2.965,4.988 4.071,5.482C5.176,5.976 6.376,6.212 7.671,6.212C8.659,6.212 9.529,6.094 10.306,5.812C11.082,5.529 11.741,5.153 12.282,4.682C12.824,4.212 13.247,3.647 13.529,3.012C13.835,2.353 13.976,1.671 13.976,0.941C13.976,0.259 13.882,-0.329 13.671,-0.847C13.482,-1.365 13.224,-1.812 12.871,-2.212C12.541,-2.588 12.141,-2.941 11.671,-3.224C11.2,-3.506 10.682,-3.765 10.165,-4L7.529,-5.129C7.153,-5.271 6.8,-5.435 6.447,-5.624C6.071,-5.812 5.741,-6 5.459,-6.235C5.153,-6.471 4.918,-6.753 4.729,-7.059C4.541,-7.365 4.471,-7.765 4.471,-8.212C4.471,-9.059 4.776,-9.718 5.412,-10.188C6.047,-10.682 6.871,-10.918 7.906,-10.918C8.776,-10.918 9.553,-10.753 10.235,-10.447C10.918,-10.141 11.553,-9.718 12.118,-9.176L13.388,-10.682C12.729,-11.365 11.929,-11.929 10.988,-12.353C10.047,-12.776 9.012,-12.988 7.906,-12.988C7.059,-12.988 6.282,-12.847 5.576,-12.612C4.871,-12.376 4.259,-12.024 3.741,-11.576C3.224,-11.129 2.824,-10.612 2.518,-10.024C2.235,-9.412 2.094,-8.753 2.094,-8.071C2.094,-7.388 2.212,-6.8 2.424,-6.282C2.659,-5.765 2.941,-5.318 3.294,-4.941C3.671,-4.565 4.071,-4.235 4.518,-3.976C4.965,-3.718 5.412,-3.482 5.835,-3.294L8.494,-2.141C8.941,-1.929 9.341,-1.741 9.718,-1.553C10.094,-1.365 10.424,-1.153 10.682,-0.918C10.965,-0.682 11.176,-0.4 11.341,-0.071C11.506,0.259 11.576,0.659 11.576,1.129C11.576,2.047 11.247,2.776 10.565,3.318C9.882,3.882 8.941,4.165 7.718,4.165C6.753,4.165 5.812,3.953 4.918,3.529C4.024,3.106 3.247,2.541 2.588,1.835ZM24.447,6.212C25.624,6.212 26.682,6 27.647,5.553C28.635,5.082 29.459,4.447 30.165,3.6C30.871,2.776 31.412,1.765 31.812,0.565C32.188,-0.635 32.376,-1.976 32.376,-3.459C32.376,-4.941 32.188,-6.259 31.812,-7.435C31.412,-8.612 30.871,-9.6 30.165,-10.424C29.459,-11.247 28.635,-11.882 27.647,-12.306C26.682,-12.753 25.624,-12.988 24.447,-12.988C23.294,-12.988 22.212,-12.753 21.247,-12.329C20.282,-11.906 19.435,-11.271 18.753,-10.447C18.047,-9.624 17.506,-8.635 17.129,-7.459C16.729,-6.282 16.541,-4.941 16.541,-3.459C16.541,-1.976 16.729,-0.635 17.129,0.565C17.506,1.765 18.047,2.776 18.753,3.6C19.435,4.447 20.282,5.082 21.247,5.553C22.212,6 23.294,6.212 24.447,6.212ZM24.447,4.165C23.624,4.165 22.871,3.976 22.212,3.624C21.529,3.271 20.965,2.753 20.494,2.094C20,1.412 19.624,0.612 19.365,-0.306C19.106,-1.247 18.965,-2.306 18.965,-3.459C18.965,-4.612 19.106,-5.647 19.365,-6.565C19.624,-7.482 20,-8.282 20.494,-8.918C20.965,-9.553 21.529,-10.047 22.212,-10.4C22.871,-10.753 23.624,-10.918 24.447,-10.918C25.271,-10.918 26.024,-10.753 26.706,-10.4C27.365,-10.047 27.929,-9.553 28.424,-8.918C28.894,-8.282 29.271,-7.482 29.529,-6.565C29.788,-5.647 29.929,-4.612 29.929,-3.459C29.929,-2.306 29.788,-1.247 29.529,-0.306C29.271,0.612 28.894,1.412 28.424,2.094C27.929,2.753 27.365,3.271 26.706,3.624C26.024,3.976 25.271,4.165 24.447,4.165ZM36.376,-12.635L36.376,5.882L38.706,5.882L38.706,-2.424L45.765,-2.424L45.765,-4.4L38.706,-4.4L38.706,-10.659L47.035,-10.659L47.035,-12.635L36.376,-12.635ZM54.165,-10.659L54.165,5.882L56.518,5.882L56.518,-10.659L62.118,-10.659L62.118,-12.635L48.565,-12.635L48.565,-10.659L54.165,-10.659ZM63.553,-12.635L67.482,5.882L70.282,5.882L73.012,-5.271C73.176,-5.976 73.318,-6.682 73.482,-7.365C73.647,-8.071 73.788,-8.753 73.953,-9.482L74.071,-9.482C74.212,-8.753 74.353,-8.071 74.494,-7.365C74.635,-6.682 74.8,-5.976 74.965,-5.271L77.765,5.882L80.588,5.882L84.424,-12.635L82.165,-12.635L80.212,-2.565C80.024,-1.553 79.859,-0.565 79.671,0.424C79.506,1.412 79.341,2.4 79.176,3.435L79.059,3.435C78.824,2.4 78.612,1.412 78.376,0.4C78.165,-0.588 77.929,-1.576 77.694,-2.565L75.129,-12.635L72.988,-12.635L70.424,-2.565C70.212,-1.553 70,-0.565 69.765,0.424C69.553,1.412 69.318,2.4 69.129,3.435L69.012,3.435C68.847,2.4 68.659,1.412 68.471,0.424C68.282,-0.541 68.094,-1.553 67.929,-2.565L65.976,-12.635L63.553,-12.635ZM95.529,-1.647L89.953,-1.647L90.824,-4.471C91.176,-5.506 91.482,-6.541 91.788,-7.576C92.094,-8.588 92.376,-9.647 92.659,-10.729L92.776,-10.729C93.082,-9.647 93.388,-8.588 93.694,-7.576C93.976,-6.541 94.306,-5.506 94.635,-4.471L95.529,-1.647ZM96.118,0.235L97.859,5.882L100.376,5.882L94.118,-12.635L91.459,-12.635L85.176,5.882L87.576,5.882L89.365,0.235L96.118,0.235ZM105.341,-3.859L105.341,-10.753L108.447,-10.753C109.906,-10.753 111.012,-10.494 111.788,-10.024C112.565,-9.529 112.941,-8.659 112.941,-7.435C112.941,-6.235 112.565,-5.341 111.788,-4.753C111.012,-4.165 109.906,-3.859 108.447,-3.859L105.341,-3.859ZM113.176,5.882L115.812,5.882L111.129,-2.188C112.4,-2.518 113.412,-3.106 114.165,-3.976C114.918,-4.847 115.294,-6 115.294,-7.435C115.294,-8.4 115.129,-9.224 114.8,-9.882C114.494,-10.541 114.047,-11.059 113.459,-11.482C112.894,-11.906 112.212,-12.188 111.412,-12.376C110.612,-12.541 109.741,-12.635 108.8,-12.635L103.012,-12.635L103.012,5.882L105.341,5.882L105.341,-1.929L108.706,-1.929L113.176,5.882ZM119.412,-12.635L119.412,5.882L130.353,5.882L130.353,3.882L121.741,3.882L121.741,-2.847L128.776,-2.847L128.776,-4.847L121.741,-4.847L121.741,-10.659L130.071,-10.659L130.071,-12.635L119.412,-12.635Z" style="fill:rgb(10,6,25);fill-rule:nonzero;"/>
                    </g>
                </g>
            </g>
        </g>
    </g>
</svg>
