<svg width="16" height="14" viewBox="0 0 16 14" fill="none" xmlns="http://www.w3.org/2000/svg">
<path fill-rule="evenodd" clip-rule="evenodd" d="M7.24254 0.0298499C7.77833 0.163799 8.10409 0.706733 7.97014 1.24253L7.53078 2.99999H10.4692L11.0299 0.757457C11.1638 0.221662 11.7067 -0.104099 12.2425 0.0298499C12.7783 0.163799 13.1041 0.706733 12.9701 1.24253L12.5308 2.99999H15C15.5523 2.99999 16 3.44771 16 3.99999C16 4.55228 15.5523 4.99999 15 4.99999H12.0308L11.0308 8.99999H13C13.5523 8.99999 14 9.44771 14 9.99999C14 10.5523 13.5523 11 13 11H10.5308L9.97014 13.2425C9.83619 13.7783 9.29326 14.1041 8.75746 13.9701C8.22167 13.8362 7.89591 13.2933 8.02986 12.7575L8.46922 11H5.53078L4.97014 13.2425C4.83619 13.7783 4.29326 14.1041 3.75746 13.9701C3.22167 13.8362 2.89591 13.2933 3.02986 12.7575L3.46922 11H1C0.447715 11 0 10.5523 0 9.99999C0 9.44771 0.447715 8.99999 1 8.99999H3.96922L4.96922 4.99999H3C2.44772 4.99999 2 4.55228 2 3.99999C2 3.44771 2.44772 2.99999 3 2.99999H5.46922L6.02986 0.757457C6.16381 0.221662 6.70674 -0.104099 7.24254 0.0298499ZM7.03078 4.99999L6.03078 8.99999H8.96922L9.96922 4.99999H7.03078Z" fill="white"/>
</svg>
